# xmcd
#
# Track frame offsets: 
#        150
#        20980
#        35689
#        63109
#        78010
#        97348
#        114197
#        133190
#        146327
#        165031
#        178494
#        194925
#        247104
#
# Disc length: 3300 seconds
#
# Revision: 0
# Processed by: cddbd v1.5.2PL0 Copyright (c) Steve Scherf et al.
# Submitted via: ExactAudioCopy v0.95b4
#
DISCID=bb0ce20d
DTITLE=Baltimore's Best Blues Bands - Baltimore On Tap
DYEAR=2005
DGENRE=Blues
TTITLE0=Don't Come Knockin'
TTITLE1=I Got My Mojo Working
TTITLE2=Love's In Vain
TTITLE3=Who's Been Talkin'
TTITLE4=Can't Kill My Heart
TTITLE5=Forty-Four
TTITLE6=Charm City Swing
TTITLE7=Can't Judge A Book
TTITLE8=You Been Warned
TTITLE9=Messin' With Me
TTITLE10=Too Tall To Mambo
TTITLE11=Born Under A Bad Sign
TTITLE12=Unknown
EXTD=
EXTT0=
EXTT1=
EXTT2=
EXTT3=
EXTT4=
EXTT5=
EXTT6=
EXTT7=
EXTT8=
EXTT9=
EXTT10=
EXTT11=
EXTT12=
PLAYORDER=
